<?xml version="1.0" standalone="no"?>
<!DOCTYPE svg PUBLIC "-//W3C//DTD SVG 20010904//EN"
 "http://www.w3.org/TR/2001/REC-SVG-20010904/DTD/svg10.dtd">
<svg version="1.0" xmlns="http://www.w3.org/2000/svg"
 width="640.000000pt" height="640.000000pt" viewBox="0 0 640.000000 640.000000"
 preserveAspectRatio="xMidYMid meet">

<g transform="translate(0.000000,640.000000) scale(0.100000,-0.100000)"
fill="#000000" stroke="none">
<path d="M3020 5874 c-233 -28 -347 -49 -509 -95 -611 -174 -1136 -558 -1496
-1094 -72 -107 -171 -282 -164 -290 2 -2 99 48 216 111 l211 115 44 -22 c38
-19 160 -85 783 -424 471 -256 565 -308 565 -314 0 -3 -59 -38 -131 -76 -72
-39 -131 -75 -132 -80 0 -6 56 -41 126 -80 69 -38 128 -73 132 -76 3 -3 -73
-48 -169 -100 l-175 -94 -1 -490 0 -490 -63 -36 c-110 -65 -860 -495 -919
-528 l-58 -32 -57 34 c-140 85 -377 217 -385 215 -4 -2 20 -52 53 -113 389
-701 1046 -1185 1824 -1345 245 -50 593 -65 846 -35 508 59 986 262 1389 589
104 84 302 284 384 386 329 412 521 875 582 1400 19 173 15 504 -10 668 -123
815 -587 1508 -1290 1928 -295 177 -614 290 -981 349 -96 16 -531 29 -615 19z
m1840 -1709 c58 -30 67 -90 21 -136 -62 -62 -181 -25 -181 55 0 77 85 120 160
81z m-1616 -100 c74 -27 140 -96 161 -169 30 -103 0 -217 -73 -275 -67 -52
-106 -63 -252 -70 l-135 -6 -3 -102 -3 -103 -84 0 -85 0 0 376 0 376 213 -4
c172 -4 221 -8 261 -23z m1960 -95 l1 -65 73 -3 73 -3 -3 -62 -3 -62 -72 -3
-73 -3 0 -107 c0 -175 16 -203 109 -188 37 6 37 5 54 -42 23 -63 22 -67 -15
-83 -55 -23 -167 -16 -218 12 -74 41 -84 69 -90 254 l-5 160 -42 -3 -43 -4 0
66 0 66 45 0 45 0 0 70 0 71 81 -3 82 -3 1 -65z m-1291 -70 c64 -24 132 -87
161 -149 32 -71 29 -189 -6 -257 -61 -117 -207 -181 -348 -154 -147 28 -238
127 -247 270 -9 126 64 244 178 288 73 28 189 29 262 2z m661 -1 c21 -7 41
-19 43 -27 3 -7 -5 -36 -18 -63 -19 -42 -26 -49 -44 -44 -123 40 -199 43 -236
9 -44 -40 -11 -66 116 -89 120 -22 169 -47 195 -100 75 -156 -90 -279 -328
-245 -63 9 -172 44 -172 56 0 17 57 113 65 110 145 -64 312 -57 291 12 -8 23
-40 35 -139 52 -91 15 -142 36 -172 71 -71 86 -22 219 97 263 51 19 240 16
302 -5z m311 -269 l0 -285 -82 -3 -83 -3 0 284 c0 156 3 287 7 291 4 4 41 5
83 4 l75 -3 0 -285z m-2041 -416 c14 -5 16 -50 16 -395 l0 -389 -35 0 -35 0 0
388 c0 214 3 392 7 395 8 9 27 9 47 1z m1610 -5 c43 -20 41 -80 -4 -94 -27 -9
-70 19 -70 45 0 17 32 60 45 60 2 0 15 -5 29 -11z m-1054 -250 c55 -24 104
-71 133 -124 18 -32 22 -57 22 -130 0 -81 -3 -95 -30 -144 -113 -205 -436
-177 -512 44 -20 59 -14 176 12 229 21 43 76 101 118 123 71 36 177 37 257 2z
m626 6 c17 -7 46 -27 66 -44 20 -17 38 -31 42 -31 3 0 6 21 6 46 0 45 0 45 33
42 l32 -3 0 -285 c-1 -275 -1 -287 -24 -337 -43 -96 -116 -136 -251 -137 -108
0 -177 21 -258 80 -2 1 4 13 13 27 l16 25 59 -30 c46 -24 77 -32 135 -36 122
-8 196 25 224 99 7 21 16 129 12 161 -1 3 -15 -7 -33 -24 -49 -46 -87 -61
-166 -66 -173 -11 -295 100 -295 267 0 76 17 122 63 175 75 85 218 116 326 71z
m923 -2 c61 -20 67 -27 47 -58 -16 -24 -18 -25 -47 -10 -80 42 -208 38 -256
-7 -29 -27 -31 -80 -4 -107 21 -21 39 -27 179 -60 125 -30 162 -64 162 -149 0
-53 -30 -95 -87 -123 -86 -42 -275 -29 -346 26 -16 11 -17 17 -6 37 6 13 13
24 14 26 1 1 22 -7 46 -17 115 -51 231 -51 281 0 22 22 29 36 26 60 -4 46 -39
67 -152 89 -164 33 -206 64 -206 152 0 58 19 95 64 126 63 43 183 49 285 15z
m-479 -258 l0 -275 -35 0 -35 0 0 275 0 275 35 0 35 0 0 -275z"/>
<path d="M2947 3943 c-4 -3 -7 -62 -7 -130 l0 -123 101 0 c152 0 199 32 199
134 0 56 -32 98 -88 114 -42 13 -194 17 -205 5z"/>
<path d="M3737 3776 c-49 -18 -67 -34 -84 -73 -48 -117 26 -240 140 -230 113
10 169 121 117 235 -15 33 -29 47 -62 62 -51 23 -61 23 -111 6z"/>
<path d="M3175 2897 c-61 -35 -96 -92 -102 -169 -7 -78 7 -126 50 -174 43 -50
82 -67 152 -68 105 0 182 57 205 154 20 84 -5 185 -57 232 -57 52 -179 64
-248 25z"/>
<path d="M3825 2907 c-72 -33 -115 -105 -115 -191 0 -92 36 -147 120 -185 82
-37 175 -23 241 36 95 86 83 250 -23 320 -35 23 -54 28 -117 31 -49 1 -87 -3
-106 -11z"/>
<path d="M1169 4246 c-63 -35 -190 -104 -284 -155 -93 -51 -290 -158 -437
-238 -147 -80 -265 -150 -262 -154 4 -8 49 -33 194 -111 41 -23 119 -65 173
-94 53 -30 99 -54 102 -54 2 0 30 -15 62 -34 32 -18 90 -50 128 -71 39 -20
152 -82 253 -137 l182 -100 143 78 c78 42 196 105 262 140 66 34 188 100 270
146 l150 83 0 158 0 158 -325 177 c-179 98 -364 199 -411 224 l-86 47 -114
-63z"/>
<path d="M2345 3690 c-3 -6 1 -7 9 -4 18 7 21 14 7 14 -6 0 -13 -4 -16 -10z"/>
</g>
</svg>
